<svg xmlns="http://www.w3.org/2000/svg" viewBox="0 0 24 24">
  <!-- Cloud Specialist: Astronomer -->
  <circle cx="12" cy="12" r="12" fill="#080810"/>
  <!-- Stars -->
  <circle cx="4" cy="5" r="0.4" fill="#B8976A" opacity="0.5"/>
  <circle cx="19" cy="4" r="0.3" fill="#B8976A" opacity="0.45"/>
  <circle cx="21" cy="10" r="0.35" fill="#B8976A" opacity="0.4"/>
  <circle cx="3" cy="15" r="0.3" fill="#B8976A" opacity="0.35"/>
  <path d="M3 24 Q3 17 12 15 Q21 17 21 24Z" fill="#0E1428"/>
  <!-- Celestial medallion -->
  <circle cx="12" cy="18.5" r="1.5" fill="none" stroke="#B8976A" stroke-width="0.4" opacity="0.55"/>
  <line x1="12" y1="17" x2="12" y2="20" stroke="#B8976A" stroke-width="0.35" opacity="0.5"/>
  <line x1="10.5" y1="18.5" x2="13.5" y2="18.5" stroke="#B8976A" stroke-width="0.35" opacity="0.5"/>
  <ellipse cx="12" cy="11" rx="4.5" ry="5" fill="#C4A07A"/>
  <ellipse cx="12" cy="6.5" rx="4.5" ry="2.5" fill="#1A1A2A"/>
  <path d="M7.5 9 Q7 7 7.5 6 Q9.5 5 12 5 Q14.5 5 16.5 6 Q17 7 16.5 9" fill="#1A1A2A"/>
  <!-- Silver streak -->
  <line x1="13" y1="5" x2="12.5" y2="8" stroke="rgba(200,184,154,0.5)" stroke-width="0.6"/>
  <ellipse cx="10.5" cy="11" rx="0.9" ry="0.75" fill="#080608"/>
  <ellipse cx="13.5" cy="11" rx="0.9" ry="0.75" fill="#080608"/>
  <circle cx="10.8" cy="10.4" r="0.32" fill="rgba(255,255,255,0.75)"/>
  <circle cx="13.8" cy="10.4" r="0.32" fill="rgba(255,255,255,0.75)"/>
  <path d="M10.5 13 Q12 13.8 13.5 13" fill="none" stroke="#7A4A28" stroke-width="0.5"/>
  <!-- Telescope prop -->
  <line x1="16" y1="17" x2="22" y2="13" stroke="#B8976A" stroke-width="0.8" opacity="0.4"/>
  <ellipse cx="16.2" cy="17" rx="1.2" ry="0.7" transform="rotate(-35,16.2,17)" fill="rgba(184,151,106,0.2)" stroke="#B8976A" stroke-width="0.4" opacity="0.4"/>
</svg>
