<svg xmlns="http://www.w3.org/2000/svg" viewBox="0 0 24 24">
  <!-- Generalist: Renaissance Humanist — open book + warm background -->
  <circle cx="12" cy="12" r="12" fill="#1A1208"/>
  <!-- Robe -->
  <path d="M4 24 Q4 17 12 15 Q20 17 20 24Z" fill="#3A2A08"/>
  <!-- Collar -->
  <path d="M8 16 Q12 18 16 16 Q15 17.5 12 18 Q9 17.5 8 16Z" fill="#B8976A" opacity="0.6"/>
  <!-- Head -->
  <ellipse cx="12" cy="11" rx="4.5" ry="5" fill="#C4A07A"/>
  <!-- Hair -->
  <ellipse cx="12" cy="6.5" rx="4.5" ry="2.5" fill="#2A1A0A"/>
  <path d="M7.5 9 Q7 7 7.5 6 Q9.5 5 12 5 Q14.5 5 16.5 6 Q17 7 16.5 9" fill="#2A1A0A"/>
  <!-- Eyes -->
  <ellipse cx="10.5" cy="11" rx="0.9" ry="0.7" fill="#080604"/>
  <ellipse cx="13.5" cy="11" rx="0.9" ry="0.7" fill="#080604"/>
  <circle cx="10.8" cy="10.7" r="0.3" fill="rgba(255,255,255,0.7)"/>
  <circle cx="13.8" cy="10.7" r="0.3" fill="rgba(255,255,255,0.7)"/>
  <!-- Smile -->
  <path d="M10.5 13 Q12 13.8 13.5 13" fill="none" stroke="#8A5A3A" stroke-width="0.6"/>
  <!-- Book (prop) -->
  <rect x="7" y="19" width="5" height="3.5" rx="0.5" fill="#B8976A" opacity="0.5"/>
  <line x1="9.5" y1="19" x2="9.5" y2="22.5" stroke="#8A6A3A" stroke-width="0.4" opacity="0.5"/>
</svg>
